<?xml version="1.0" encoding="UTF-8"?>

<!--
Hostforge Logo
(c) 2024 Derock X.

This logo is not under the same license as the source code.
You may use this logo in its unaltered form, but they can't be used or reused except in the context of this project.
i.e. you may not use this logo for your own apps and products.
-->

<svg id="Layer_2" data-name="Layer 2" xmlns="http://www.w3.org/2000/svg" viewBox="0 0 299.54 376.33">
  <defs>
    <style>
      .cls-1 {
        fill: #f56e0f;
        stroke-width: 0px;
      }
    </style>
  </defs>
  <g id="Layer_1-2" data-name="Layer 1">
    <path class="cls-1" d="m224.81,74.44c16.89-22.07,13.25-53.92-8.76-70.98-2.84-2.21-4.91-3.33-5.15-3.46,2.76,5.55,2.66,12.68,1.51,19.29-1.73,10-6.11,19.34-12.35,27.32l-4.43,5.66c-16.59,17.69-20.02,30.79-20.58,37.13-.06.38-.11.75-.16,1.12-.41,3.31-.41,6.45-.13,9.35,1.73,17.7,14.29,27.96,14.29,27.96-.63-5.02,2.31-11.28,6.2-17.07,3.1-4.65,6.8-9.01,9.75-12.23.5-.55,1-1.1,1.49-1.65l63.29,36.54v139.02s-5.76-28.13-24.35-51.18c-1.22-1.59-2.55-3.12-3.97-4.62-4.62-5.04-9.93-9.71-16.01-13.6,0,0,0,0-.01,0-10.93-8.06-25.29-17.48-44.29-31.84-55.25-41.76-34.69-84.16-34.69-84.16-67.55,57-49.27,84.51-40.58,92.52,3.96,3.65,7.82,7.42,11.34,11.5,53.04,61.41,33.16,88.24,14.64,99.19-11.5,6.8-25.84,7.3-37.31.44-31.67-18.95-1.41-67.45-1.41-67.45-35.96,4.64-50.97,38.6-53.55,45.16-1.37,2.78-2.57,5.48-3.64,8.06l-6.94-4.01v-139.02l120.39-69.5,15.97,9.22s1.21-6.64,5.42-13.55c.78-1.25,1.68-2.55,2.7-3.87,1.99-2.49,4.43-4.86,7.41-6.78l-31.49-18.39L0,116.54v172.57l149.39,87.23,150.16-85.96V116.73l-74.73-42.29Z"/>
  </g>
</svg>
