<?xml version="1.0" encoding="UTF-8"?>

<!--
Hostforge Logo
(c) 2024 Derock X.

This logo is not under the same license as the source code.
You may use this logo in its unaltered form, but they can't be used or reused except in the context of this project.
i.e. you may not use this logo for your own apps and products.
-->

<svg id="Layer_2" data-name="Layer 2" xmlns="http://www.w3.org/2000/svg" xmlns:xlink="http://www.w3.org/1999/xlink" viewBox="0 0 509.07 104.98">
  <defs>
    <style>
      .cls-1 {
        fill: url(#linear-gradient);
      }

      .cls-1, .cls-2, .cls-3 {
        stroke-width: 0px;
      }

      .cls-2 {
        fill: #fff;
      }

      .cls-3 {
        fill: #f56e0f;
      }
    </style>
    <linearGradient id="linear-gradient" x1="0" y1="52.49" x2="83.56" y2="52.49" gradientUnits="userSpaceOnUse">
      <stop offset="0" stop-color="#9b1321"/>
      <stop offset=".52" stop-color="#e61d27"/>
      <stop offset="1" stop-color="#f57023"/>
    </linearGradient>
  </defs>
  <g id="Layer_1-2" data-name="Layer 1">
    <g>
      <path class="cls-2" d="m109.9,79.63V21.56h6.18v14.33h29.26c1.66,0,3.18.42,4.56,1.24,1.38.83,2.49,1.94,3.32,3.32.83,1.38,1.24,2.9,1.24,4.56v34.62h-6.18v-34.62c0-.8-.29-1.5-.87-2.07-.58-.58-1.27-.87-2.07-.87h-26.24c-.8,0-1.51.29-2.11.87-.6.58-.9,1.27-.9,2.07v34.62h-6.18Z"/>
      <path class="cls-2" d="m164.61,78.39c-1.38-.83-2.49-1.94-3.32-3.32-.83-1.38-1.24-2.9-1.24-4.56v-25.49c0-1.66.41-3.18,1.24-4.56.83-1.38,1.93-2.49,3.32-3.32,1.38-.83,2.9-1.24,4.56-1.24h26.24c1.71,0,3.25.42,4.64,1.24,1.38.83,2.49,1.94,3.32,3.32.83,1.38,1.24,2.9,1.24,4.56v25.49c0,1.66-.42,3.18-1.24,4.56-.83,1.38-1.94,2.49-3.32,3.32-1.38.83-2.93,1.24-4.64,1.24h-26.24c-1.66,0-3.18-.42-4.56-1.24Zm4.56-4.94h26.24c.8,0,1.5-.29,2.07-.87s.87-1.27.87-2.07v-25.49c0-.8-.29-1.5-.87-2.07-.58-.58-1.27-.87-2.07-.87h-26.24c-.8,0-1.5.29-2.07.87s-.87,1.27-.87,2.07v25.49c0,.8.29,1.5.87,2.07.58.58,1.27.87,2.07.87Z"/>
      <path class="cls-2" d="m215.07,78.39c-1.38-.83-2.49-1.94-3.32-3.32-.83-1.38-1.24-2.9-1.24-4.56v-.6h6.18v.6c0,.8.29,1.5.87,2.07.58.58,1.27.87,2.07.87h26.25c.8,0,1.5-.29,2.07-.87.58-.58.87-1.27.87-2.07v-6.71c0-.8-.29-1.5-.87-2.07-.58-.58-1.27-.87-2.07-.87h-26.25c-1.66,0-3.18-.42-4.56-1.24-1.38-.83-2.49-1.94-3.32-3.32-.83-1.38-1.24-2.9-1.24-4.56v-6.71c0-1.66.42-3.18,1.24-4.56.83-1.38,1.93-2.49,3.32-3.32,1.38-.83,2.9-1.24,4.56-1.24h26.25c1.71,0,3.25.42,4.64,1.24,1.38.83,2.49,1.94,3.32,3.32.83,1.38,1.24,2.9,1.24,4.56v.6h-6.26v-.6c0-.8-.29-1.5-.87-2.07-.58-.58-1.27-.87-2.07-.87h-26.25c-.8,0-1.5.29-2.07.87-.58.58-.87,1.27-.87,2.07v6.71c0,.8.29,1.5.87,2.07.58.58,1.27.87,2.07.87h26.25c1.71,0,3.25.42,4.64,1.25,1.38.83,2.49,1.94,3.32,3.32.83,1.38,1.24,2.9,1.24,4.56v6.71c0,1.66-.42,3.18-1.24,4.56-.83,1.38-1.94,2.49-3.32,3.32-1.38.83-2.93,1.24-4.64,1.24h-26.25c-1.66,0-3.18-.42-4.56-1.24Z"/>
      <path class="cls-2" d="m267.1,78.39c-1.38-.83-2.48-1.94-3.28-3.32-.81-1.38-1.21-2.9-1.21-4.56V21.56h6.18v14.33h18.93v6.18h-18.93v28.43c0,.8.29,1.5.87,2.07.58.58,1.27.87,2.07.87h15.99v6.18h-15.99c-1.71,0-3.26-.42-4.64-1.24Z"/>
      <path class="cls-3" d="m293.53,79.63V30.69c0-1.71.4-3.25,1.21-4.64.8-1.38,1.9-2.48,3.28-3.28,1.38-.8,2.93-1.21,4.64-1.21h15.99v6.18h-15.99c-.8,0-1.5.29-2.07.87-.58.58-.87,1.27-.87,2.07v5.2h18.93v6.18h-18.93v37.56h-6.18Z"/>
      <path class="cls-3" d="m328.64,78.39c-1.38-.83-2.49-1.94-3.32-3.32-.83-1.38-1.24-2.9-1.24-4.56v-25.49c0-1.66.41-3.18,1.24-4.56.83-1.38,1.93-2.49,3.32-3.32,1.38-.83,2.9-1.24,4.56-1.24h26.24c1.71,0,3.25.42,4.64,1.24,1.38.83,2.49,1.94,3.32,3.32.83,1.38,1.24,2.9,1.24,4.56v25.49c0,1.66-.42,3.18-1.24,4.56-.83,1.38-1.94,2.49-3.32,3.32-1.38.83-2.93,1.24-4.64,1.24h-26.24c-1.66,0-3.18-.42-4.56-1.24Zm4.56-4.94h26.24c.8,0,1.5-.29,2.07-.87s.87-1.27.87-2.07v-25.49c0-.8-.29-1.5-.87-2.07-.58-.58-1.27-.87-2.07-.87h-26.24c-.8,0-1.5.29-2.07.87s-.87,1.27-.87,2.07v25.49c0,.8.29,1.5.87,2.07.58.58,1.27.87,2.07.87Z"/>
      <path class="cls-3" d="m375.59,79.63v-34.62c0-1.66.41-3.18,1.24-4.56.83-1.38,1.93-2.49,3.32-3.32,1.38-.83,2.9-1.24,4.56-1.24h24.59v6.18h-24.59c-.8,0-1.5.29-2.07.87-.58.58-.87,1.27-.87,2.07v34.62h-6.18Z"/>
      <path class="cls-3" d="m421.44,96.9v-6.26h27.3c.8,0,1.5-.29,2.07-.87.58-.58.87-1.27.87-2.07v-8.07h-29.19c-1.66,0-3.18-.42-4.56-1.24-1.38-.83-2.49-1.94-3.32-3.32-.83-1.38-1.24-2.9-1.24-4.56v-25.49c0-1.66.42-3.18,1.24-4.56.83-1.38,1.94-2.49,3.32-3.32,1.38-.83,2.9-1.24,4.56-1.24h26.24c1.71,0,3.25.42,4.64,1.24,1.38.83,2.48,1.94,3.28,3.32.8,1.38,1.21,2.9,1.21,4.56v42.68c0,1.71-.4,3.25-1.21,4.64-.8,1.38-1.9,2.49-3.28,3.32-1.38.83-2.93,1.25-4.64,1.25h-27.3Zm1.06-23.45h26.24c.8,0,1.5-.29,2.07-.87s.87-1.27.87-2.07v-25.49c0-.8-.29-1.5-.87-2.07-.58-.58-1.27-.87-2.07-.87h-26.24c-.81,0-1.5.29-2.07.87-.58.58-.87,1.27-.87,2.07v25.49c0,.8.29,1.5.87,2.07.58.58,1.27.87,2.07.87Z"/>
      <path class="cls-3" d="m469.06,78.39c-1.38-.83-2.49-1.94-3.32-3.32-.83-1.38-1.24-2.9-1.24-4.56v-25.49c0-1.66.41-3.18,1.24-4.56.83-1.38,1.93-2.49,3.32-3.32,1.38-.83,2.9-1.24,4.56-1.24h26.24c1.71,0,3.25.42,4.64,1.24,1.38.83,2.49,1.94,3.32,3.32.83,1.38,1.24,2.9,1.24,4.56v15.84h-38.39v9.65c0,.8.29,1.5.87,2.07.58.58,1.27.87,2.07.87h35.45v6.18h-35.45c-1.66,0-3.18-.42-4.56-1.24Zm1.62-23.72h32.13v-9.65c0-.8-.29-1.5-.87-2.07-.58-.58-1.27-.87-2.07-.87h-26.24c-.8,0-1.5.29-2.07.87s-.87,1.27-.87,2.07v9.65Z"/>
    </g>
    <path class="cls-1" d="m62.71,20.77c4.71-6.16,3.7-15.04-2.44-19.8-.79-.62-1.37-.93-1.44-.97.77,1.55.74,3.54.42,5.38-.48,2.79-1.7,5.4-3.45,7.62l-1.24,1.58c-4.63,4.94-5.59,8.59-5.74,10.36-.02.1-.03.21-.04.31-.11.92-.11,1.8-.04,2.61.48,4.94,3.99,7.8,3.99,7.8-.18-1.4.64-3.15,1.73-4.76.86-1.3,1.9-2.51,2.72-3.41.14-.15.28-.31.42-.46l17.66,10.19v38.78s-1.61-7.85-6.79-14.28c-.34-.44-.71-.87-1.11-1.29-1.29-1.41-2.77-2.71-4.47-3.8,0,0,0,0,0,0-3.05-2.25-7.06-4.88-12.36-8.88-15.41-11.65-9.68-23.48-9.68-23.48-18.84,15.9-13.74,23.58-11.32,25.81,1.11,1.02,2.18,2.07,3.16,3.21,14.8,17.13,9.25,24.62,4.08,27.67-3.21,1.9-7.21,2.04-10.41.12-8.83-5.29-.39-18.82-.39-18.82-10.03,1.29-14.22,10.77-14.94,12.6-.38.77-.72,1.53-1.01,2.25l-1.94-1.12v-38.78l33.58-19.39,4.45,2.57s.34-1.85,1.51-3.78c.22-.35.47-.71.75-1.08.55-.7,1.23-1.36,2.07-1.89l-8.79-5.13L0,32.51v48.14l41.67,24.33,41.89-23.98v-48.44l-20.85-11.8Z"/>
  </g>
</svg>
